<?xml version="1.0" encoding="utf-8"?>
<!-- Generator: Adobe Illustrator 21.0.2, SVG Export Plug-In . SVG Version: 6.00 Build 0)  -->
<svg version="1.1" id="Layer_1" xmlns="http://www.w3.org/2000/svg" xmlns:xlink="http://www.w3.org/1999/xlink" x="0px" y="0px"
	 viewBox="0 0 377 133.2" style="enable-background:new 0 0 377 133.2;" xml:space="preserve">
<style type="text/css">
	.st0{clip-path:url(#SVGID_2_);fill:#36383D;}
	.st1{clip-path:url(#SVGID_2_);fill:#50A195;}
</style>
<g>
	<defs>
		<rect id="SVGID_1_" width="377" height="133.2"/>
	</defs>
	<clipPath id="SVGID_2_">
		<use xlink:href="#SVGID_1_"  style="overflow:visible;"/>
	</clipPath>
	<path class="st0" d="M359.2,108.7h1.1v-3.8c0-0.5,0-1.4,0.5-2c0.3-0.4,0.8-0.6,1.2-0.6c0.5,0,0.9,0.2,1.1,0.5
		c0.3,0.4,0.3,0.9,0.3,1.3v4.5h1.1v-4.5c0-0.8,0-1.4-0.4-2c-0.4-0.6-1.1-1-1.9-1c-1.1,0-1.7,0.7-1.9,1v-0.8h-1.1V108.7z
		 M353.8,102.4c1,0,2.2,0.8,2.2,2.7c0,1.4-0.8,2.7-2.2,2.7c-1.4,0-2.1-1.2-2.1-2.7C351.6,103.3,352.6,102.4,353.8,102.4
		 M355.9,102.5c-0.3-0.4-1-1.2-2.2-1.2c-1.7,0-3.2,1.3-3.2,3.8c0,2.6,1.5,3.9,3.2,3.9c1.2,0,1.9-0.7,2.2-1.2v1h1.1v-7.3h-1.1V102.5z
		 M340,108.7h1.1v-4c0-0.9,0.1-2.4,1.4-2.4c1.2,0,1.2,1.5,1.2,2v4.3h1.1v-4.1c0-0.9,0.1-2.3,1.5-2.3c1.1,0,1.2,1.1,1.2,1.9v4.4h1.1
		v-4.6c0-1-0.2-2.8-2.1-2.8c-0.4,0-1.3,0.1-2,1.2c-0.1-0.2-0.6-1.2-1.8-1.2c-0.7,0-1.3,0.4-1.6,0.9v-0.8H340V108.7z M334.6,102.4
		c1,0,2.2,0.8,2.2,2.7c0,1.4-0.8,2.7-2.2,2.7c-1.4,0-2.1-1.2-2.1-2.7C332.5,103.3,333.5,102.4,334.6,102.4 M336.7,102.5
		c-0.3-0.4-1-1.2-2.2-1.2c-1.7,0-3.2,1.3-3.2,3.8c0,2.6,1.5,3.9,3.2,3.9c1.2,0,1.9-0.7,2.2-1.2v1h1.1V95.9h-1.1V102.5z M324.9,104.3
		c0.2-1.1,1-1.9,1.9-1.9c1,0,1.7,0.8,1.9,1.9H324.9z M329,106.3c-0.1,0.4-0.4,0.7-0.7,1c-0.4,0.4-0.8,0.5-1.3,0.5
		c-1.1,0-2.1-1-2.1-2.5h5.1c0-1-0.2-2.1-0.6-2.7c-0.4-0.6-1.2-1.3-2.5-1.3c-2,0-3.2,1.7-3.2,3.9c0,2.7,1.7,3.8,3.2,3.8
		c0.8,0,1.6-0.3,2.2-0.9c0.3-0.3,0.6-0.8,0.8-1.2L329,106.3z M320.6,98.7c0,0.5,0.4,0.9,0.8,0.9c0.4,0,0.8-0.4,0.8-0.9
		c0-0.5-0.4-0.9-0.8-0.9C320.9,97.8,320.6,98.2,320.6,98.7 M320.8,108.7h1.1v-7.3h-1.1V108.7z M316.1,108.7h1.1v-3.8
		c0-1.2,0.2-1.7,0.4-2c0.2-0.2,0.5-0.5,0.9-0.5c0.2,0,0.4,0.1,0.7,0.2l0.5-1.1c-0.3-0.2-0.7-0.3-1-0.3c-0.9,0-1.4,0.8-1.5,1v-0.8
		h-1.1V108.7z M314.7,97h-4.8v11.7h1.2v-5.8h3.5v-1.2h-3.5v-3.5h3.6V97z M304.9,102.6v-1.2h-1.1v-2.6h-1.1v2.6h-0.7v1.2h0.7v6.1h1.1
		v-6.1H304.9z M297.1,102.4c1,0,2.2,0.8,2.2,2.7c0,1.4-0.8,2.7-2.2,2.7c-1.4,0-2.1-1.2-2.1-2.7C295,103.3,296,102.4,297.1,102.4
		 M299.3,102.5c-0.3-0.4-1-1.2-2.2-1.2c-1.7,0-3.2,1.3-3.2,3.8c0,2.6,1.5,3.9,3.2,3.9c1.2,0,1.9-0.7,2.2-1.2v1h1.1v-7.3h-1.1V102.5z
		 M286.8,108.7h1.1v-3.8c0-0.5,0-1.4,0.5-2c0.3-0.4,0.8-0.6,1.2-0.6c0.5,0,0.9,0.2,1.1,0.5c0.3,0.4,0.3,0.9,0.3,1.3v4.5h1.1v-4.5
		c0-0.8,0-1.4-0.4-2c-0.4-0.6-1.1-1-1.9-1c-1.1,0-1.7,0.7-1.9,1v-0.8h-1.1V108.7z M279,104.2l1.8-4.7l1.8,4.7H279z M284.3,108.7h1.3
		l-4.7-12.3l-4.9,12.3h1.3l1.3-3.3h4.5L284.3,108.7z M266,112.7h1.3l4.8-11.3h-1.3l-2.1,5.2l-2.3-5.2h-1.3l3,6.6L266,112.7z
		 M261,107.8c-1.3,0-2.2-1.2-2.2-2.7c0-1.8,1.1-2.7,2.2-2.7c1.1,0,2.1,0.9,2.1,2.7C263.1,106.6,262.3,107.8,261,107.8 M258.8,107.7
		c0.5,0.7,1.2,1.2,2.3,1.2c2,0,3.1-1.8,3.1-3.8c0-2-1.1-3.9-3.2-3.9c-0.5,0-1.5,0.1-2.2,1.2v-6.5h-1.1v12.8h1.1V107.7z M248.6,102.4
		c1,0,2.2,0.8,2.2,2.7c0,1.4-0.8,2.7-2.2,2.7c-1.4,0-2.1-1.2-2.1-2.7C246.5,103.3,247.5,102.4,248.6,102.4 M250.7,102.5
		c-0.3-0.4-1-1.2-2.2-1.2c-1.7,0-3.2,1.3-3.2,3.8c0,2.6,1.5,3.9,3.2,3.9c1.2,0,1.9-0.7,2.2-1.2v1h1.1V95.9h-1.1V102.5z M238.3,108.7
		h1.1v-3.8c0-0.5,0-1.4,0.5-2c0.3-0.4,0.8-0.6,1.2-0.6c0.5,0,0.9,0.2,1.1,0.5c0.3,0.4,0.3,0.9,0.3,1.3v4.5h1.1v-4.5
		c0-0.8,0-1.4-0.4-2c-0.4-0.6-1.1-1-1.9-1c-1.1,0-1.7,0.7-1.9,1v-0.8h-1.1V108.7z M234.8,98.7c0,0.5,0.4,0.9,0.8,0.9
		c0.4,0,0.8-0.4,0.8-0.9c0-0.5-0.4-0.9-0.8-0.9C235.1,97.8,234.8,98.2,234.8,98.7 M235,108.7h1.1v-7.3H235V108.7z M224.2,108.7h1.1
		v-4c0-0.9,0.1-2.4,1.4-2.4c1.2,0,1.2,1.5,1.2,2v4.3h1.1v-4.1c0-0.9,0.1-2.3,1.5-2.3c1.1,0,1.2,1.1,1.2,1.9v4.4h1.1v-4.6
		c0-1-0.2-2.8-2.1-2.8c-0.4,0-1.3,0.1-2,1.2c-0.1-0.2-0.6-1.2-1.8-1.2c-0.7,0-1.3,0.4-1.6,0.9v-0.8h-1.1V108.7z M219.5,102.6v-1.2
		h-1.6v-3c0-0.4,0-0.8,0.1-1.1c0.2-0.3,0.5-0.4,0.7-0.4c0.2,0,0.5,0.1,0.7,0.2v-1.2c-0.1-0.1-0.4-0.2-0.8-0.2c-0.5,0-1,0.2-1.3,0.5
		c-0.6,0.5-0.6,1.4-0.6,2.1v3.2h-0.6v1.2h0.6v6.1h1.1v-6.1H219.5z M211.5,102.4c1.2,0,2.3,0.9,2.3,2.7c0,1.8-1.1,2.7-2.3,2.7
		c-1.2,0-2.3-0.9-2.3-2.7C209.2,103.3,210.3,102.4,211.5,102.4 M211.5,108.9c2,0,3.5-1.6,3.5-3.8s-1.5-3.8-3.5-3.8
		c-2,0-3.5,1.6-3.5,3.8S209.5,108.9,211.5,108.9 M198,104.3c0.2-1.1,1-1.9,1.9-1.9c1,0,1.7,0.8,1.9,1.9H198z M202,106.3
		c-0.1,0.4-0.4,0.7-0.7,1c-0.4,0.4-0.8,0.5-1.3,0.5c-1.1,0-2.1-1-2.1-2.5h5.1c0-1-0.2-2.1-0.6-2.7c-0.4-0.6-1.2-1.3-2.5-1.3
		c-2,0-3.2,1.7-3.2,3.9c0,2.7,1.7,3.8,3.2,3.8c0.8,0,1.6-0.3,2.2-0.9c0.3-0.3,0.6-0.8,0.8-1.2L202,106.3z M195.3,101.9
		c-0.3-0.2-1-0.7-2-0.7c-2,0-3.5,1.6-3.5,3.9c0,2.2,1.5,3.8,3.5,3.8c0.6,0,1.4-0.2,2.1-0.8v-1.5c-0.6,0.8-1.4,1.1-2.1,1.1
		c-1.2,0-2.3-0.9-2.3-2.7s1.1-2.7,2.3-2.7c0.6,0,1.5,0.2,2.1,1.1V101.9z M184.8,102.4c1,0,2.2,0.8,2.2,2.7c0,1.4-0.8,2.7-2.2,2.7
		c-1.4,0-2.2-1.2-2.2-2.7C182.6,103.3,183.7,102.4,184.8,102.4 M186.9,102.5c-0.3-0.4-1-1.2-2.2-1.2c-1.7,0-3.2,1.3-3.2,3.8
		c0,2.6,1.5,3.9,3.2,3.9c1.2,0,1.9-0.7,2.2-1.2v1h1.1v-7.3h-1.1V102.5z M175.1,104.3c0.2-1.1,1-1.9,1.9-1.9c1,0,1.7,0.8,1.9,1.9
		H175.1z M179.1,106.3c-0.1,0.4-0.4,0.7-0.7,1c-0.4,0.4-0.8,0.5-1.3,0.5c-1.1,0-2.1-1-2.1-2.5h5.1c0-1-0.2-2.1-0.6-2.7
		c-0.4-0.6-1.2-1.3-2.5-1.3c-2,0-3.2,1.7-3.2,3.9c0,2.7,1.7,3.8,3.2,3.8c0.8,0,1.6-0.3,2.2-0.9c0.3-0.3,0.6-0.8,0.8-1.2L179.1,106.3
		z M169.2,107.8c-1.3,0-2.2-1.2-2.2-2.7c0-1.8,1.1-2.7,2.2-2.7c1.1,0,2.2,0.9,2.2,2.7C171.4,106.6,170.6,107.8,169.2,107.8
		 M167.1,107.7c0.5,0.7,1.2,1.2,2.3,1.2c2,0,3.1-1.8,3.1-3.8c0-2-1.1-3.9-3.2-3.9c-0.5,0-1.5,0.1-2.2,1.2v-1H166v11.3h1.1V107.7z
		 M157.6,108.7h1.1v-3.8c0-1.2,0.2-1.7,0.4-2c0.2-0.2,0.5-0.5,0.9-0.5c0.2,0,0.4,0.1,0.7,0.2l0.5-1.1c-0.3-0.2-0.7-0.3-1-0.3
		c-0.9,0-1.4,0.8-1.5,1v-0.8h-1.1V108.7z M151.4,101.4h-1.1v4.4c0,0.9,0.1,1.6,0.6,2.2c0.6,0.7,1.4,0.9,2,0.9s1.4-0.2,2-0.9
		c0.5-0.6,0.6-1.3,0.6-2.2v-4.4h-1.1v4.2c0,0.5,0,1.1-0.3,1.6c-0.2,0.2-0.5,0.6-1.2,0.6s-1-0.3-1.2-0.6c-0.3-0.5-0.3-1.1-0.3-1.6
		V101.4z M145,102.4c1.2,0,2.3,0.9,2.3,2.7c0,1.8-1.1,2.7-2.3,2.7c-1.2,0-2.3-0.9-2.3-2.7C142.7,103.3,143.8,102.4,145,102.4
		 M145,108.9c2,0,3.5-1.6,3.5-3.8s-1.5-3.8-3.5-3.8c-2,0-3.5,1.6-3.5,3.8S143,108.9,145,108.9 M137.6,108.7h1.2v-5l3.5-6.7H141
		l-2.7,5.2l-2.7-5.2h-1.4l3.5,6.7V108.7z"/>
	<path class="st0" d="M364.7,83.3l4.6-29.6h-2.5l-3.4,21.9c0,0-10,4.5-11.8,4.5c-1.2,0-2-1-2-2.6c0-0.3,0-0.5,0.1-0.8l3.6-23h-2.5
		l-3.8,24c0,0.3,0,0.5,0,0.8c0,2.3,1.7,4.1,4.2,4.1c2.7,0,12-4.4,12-4.4l-0.8,5.1c-0.4,2.4-2.5,4.2-4.9,4.2h-11.8L345,90h11.8
		C360.6,90,364,87,364.7,83.3 M335.2,76.8l3.3-20.6h7.4l0.4-2.5h-7.3l1.2-7.4h-2.5l-1.2,7.4h-5.2l-0.4,2.5h5.1l-3.3,20.6
		c-0.1,0.3-0.1,0.6-0.1,0.9c0,2.8,2,4.9,4.9,4.9h1.3l0.4-2.5h-1.3c-1.5-0.1-2.7-1.1-2.7-2.7C335.2,77.1,335.2,77,335.2,76.8
		 M320.9,76.8l3.7-23.1H322l-3.7,23.1c-0.1,0.3-0.1,0.6-0.1,0.9c0,2.8,2,4.9,4.9,4.9h1.3l0.4-2.5h-1.3c-1.5-0.1-2.7-1.1-2.7-2.7
		C320.8,77.1,320.8,77,320.9,76.8 M325.3,48.6l0.9-5.4h-2.5l-0.9,5.4H325.3z M308.4,76.8l5.3-33.5h-2.6l-5.3,33.5
		c-0.1,0.3-0.1,0.6-0.1,0.9c0,2.8,2,4.9,4.9,4.9h1.3l0.4-2.5h-1.3c-1.5-0.1-2.7-1.1-2.7-2.7C308.3,77.1,308.3,77,308.4,76.8
		 M295.9,76.8l5.3-33.5h-2.6l-5.3,33.5c-0.1,0.3-0.1,0.6-0.1,0.9c0,2.8,2,4.9,4.9,4.9h1.3l0.4-2.5h-1.3c-1.5-0.1-2.7-1.1-2.7-2.7
		C295.9,77.1,295.9,77,295.9,76.8 M283.5,76.8l3.7-23.1h-2.5l-3.7,23.1c-0.1,0.3-0.1,0.6-0.1,0.9c0,2.8,2,4.9,4.9,4.9h1.3l0.4-2.5
		h-1.3c-1.5-0.1-2.7-1.1-2.7-2.7C283.4,77.1,283.4,77,283.5,76.8 M287.9,48.6l0.9-5.4h-2.5l-0.9,5.4H287.9z M270.4,78.2l-0.6,3.9
		h2.5l4.5-28.5h-2.5l-3.5,22c0,0-9.9,4.4-11.8,4.4c-1.2,0-2.1-1-2.1-2.6c0-0.3,0-0.5,0.1-0.7l3.7-23.1h-2.5l-3.8,24.1
		c-0.1,0.3-0.1,0.5-0.1,0.8c0,2.3,1.7,4.1,4.2,4.1C261.1,82.6,270.4,78.2,270.4,78.2 M239,55.6h5.2c2.1,0,3.6,1.5,3.6,3.6
		c0,0.2,0,0.4-0.1,0.7l-2.5,15.7c-4,1.8-10.4,4.5-11.8,4.5c-1.2,0-2.1-0.8-2.1-2.3c0-0.2,0-0.4,0.1-0.6l2.7-17.3
		C234.4,57.5,236.6,55.6,239,55.6 M244.6,53.1h-5.1c-3.8,0-7.3,3.1-7.9,6.8l-2.8,17.8c-0.1,0.3-0.1,0.5-0.1,0.7c0,2.4,1.6,4.2,4,4.2
		c2.1,0,8-2.5,12.2-4.4L243,89.6h2.5l4.7-29.7C250.9,56.1,248.4,53,244.6,53.1 M209.1,57.6l0.6-3.9h-2.5l-4.5,28.5h2.5l3.5-22
		c0,0,9.9-4.4,11.8-4.4c1.2,0,2.1,1,2.1,2.6c0,0.3,0,0.5-0.1,0.7l-3.7,23.1h2.5l3.8-24.1c0.1-0.3,0.1-0.5,0.1-0.8
		c0-2.3-1.7-4.1-4.2-4.1C218.4,53.1,209.1,57.6,209.1,57.6 M195.3,59.8l-2.4,15.5c-2.2,1.2-9.6,4.7-12.1,4.7c-1.2,0-2.2-0.9-2-2.3
		l2.8-17.9c0.4-2.4,2.5-4.2,4.9-4.2h5.2c2.1,0,3.6,1.5,3.6,3.5C195.4,59.3,195.4,59.6,195.3,59.8 M198.6,80.1H198
		c-1.6-0.1-2.8-1.1-2.8-2.8c0-0.2,0-0.4,0.1-0.6l2.7-16.9c0.1-0.4,0.1-0.7,0.1-1c0-3.3-2.4-5.7-5.8-5.7H187c-3.8,0-7.3,3.1-7.8,6.8
		l-2.8,17.9c-0.1,0.3-0.1,0.5-0.1,0.8c0,2.3,1.7,4.1,4.2,4.1c2.4,0,10-3.4,12.2-4.6c0.1,2.6,2.1,4.6,4.9,4.6h0.7L198.6,80.1z
		 M158.7,57.6l0.6-3.9h-2.5l-4.5,28.5h2.5l3.5-22c0,0,9.9-4.4,11.8-4.4c1.2,0,2.1,1,2.1,2.6c0,0.3,0,0.5-0.1,0.7l-0.7,4.1h2.5
		l0.8-5.1c0.1-0.3,0.1-0.5,0.1-0.8c0-2.3-1.7-4.1-4.2-4.1C168,53.1,158.7,57.6,158.7,57.6 M155.9,44l0.4-2.5h-21.6l-0.4,2.5h9.5
		l-6.1,38.1h2.5l6.1-38.1H155.9z"/>
	<path class="st1" d="M63.1,64c0,0.5-0.4,0.9-0.9,0.9c-0.5,0-0.9-0.4-0.9-0.9V34.2c0-2.4,0.8-4.2,2-5.4c0.9-0.9,1.9-1.5,3.1-1.7
		c1.1-0.3,2.3-0.2,3.4,0.1c1.6,0.5,3,1.5,3.8,3.1l0,0c0.7,1.4,0.8,3.1,0.5,4.6c-0.3,1.6-1.2,2.9-2.4,3.6v0c-2.1,1.2-3.8,0.9-5.1,0
		c-0.6-0.4-1-1-1.3-1.7c-0.3-0.6-0.4-1.3-0.4-2c0-1.5,0.8-2.9,2.5-3.4c0.4-0.2,0.9,0.1,1.1,0.5c0.2,0.4-0.1,0.9-0.5,1.1
		c-0.9,0.3-1.3,1.1-1.4,1.9c0,0.4,0.1,0.9,0.3,1.3c0.2,0.4,0.5,0.8,0.8,1c0.7,0.5,1.8,0.7,3.2-0.1h0c0.8-0.4,1.3-1.4,1.5-2.5
		c0.3-1.2,0.2-2.4-0.3-3.4h0c-0.6-1.2-1.6-1.9-2.8-2.3c-0.8-0.2-1.7-0.3-2.6-0.1C66,29,65.2,29.4,64.6,30c-0.9,0.9-1.5,2.3-1.5,4.2
		V64z"/>
	<path class="st1" d="M63.1,64c0,0.5-0.4,0.9-0.9,0.9c-0.5,0-0.9-0.4-0.9-0.9V34.2c0-1.9-0.6-3.3-1.5-4.2c-0.6-0.7-1.4-1.1-2.2-1.3
		c-0.8-0.2-1.7-0.2-2.6,0.1c-1.2,0.3-2.2,1.1-2.8,2.3h0c-0.5,1-0.6,2.3-0.3,3.4c0.2,1.1,0.8,2.1,1.5,2.5h0c1.4,0.8,2.5,0.7,3.2,0.1
		c0.3-0.3,0.6-0.6,0.8-1c0.2-0.4,0.3-0.8,0.3-1.3c0-0.8-0.4-1.6-1.4-1.9c-0.4-0.2-0.7-0.6-0.5-1.1c0.2-0.4,0.6-0.7,1.1-0.5
		c1.7,0.6,2.5,2,2.5,3.4c0,0.7-0.1,1.4-0.4,2c-0.3,0.6-0.7,1.2-1.3,1.7c-1.2,0.9-3,1.2-5.1,0l0,0c-1.2-0.7-2-2.1-2.4-3.6
		c-0.3-1.5-0.2-3.2,0.5-4.6l0,0c0.8-1.6,2.3-2.6,3.8-3.1c1.1-0.3,2.3-0.4,3.4-0.1c1.1,0.3,2.2,0.8,3.1,1.7c1.2,1.2,2,3,2,5.4V64z"/>
	<path class="st1" d="M65.6,18.7c0.2-2.5-0.8-5.1-3.3-8c-2.3,2.5-3.4,5.1-3.3,7.5c0.1,2.5,1.2,5,3.3,7.5
		C64.2,23.4,65.4,21.1,65.6,18.7 M62.9,8.8c3.4,3.5,4.6,6.8,4.4,9.9c-0.2,3.1-1.9,6-4.4,8.8l-0.6,0.7l-0.6-0.7
		c-2.7-3.1-4.3-6.2-4.4-9.4c-0.1-3.2,1.3-6.3,4.4-9.4l0.6-0.6L62.9,8.8z"/>
	<path class="st1" d="M62.9,64.6c-0.3,0.3-0.9,0.3-1.2,0c-0.3-0.3-0.3-0.9,0-1.2l21.1-21c1.7-1.7,3.5-2.4,5.2-2.4
		c1.2,0,2.4,0.3,3.4,0.9c1,0.6,1.8,1.5,2.4,2.5c0.8,1.4,1.1,3.2,0.5,4.9l0,0c-0.5,1.5-1.6,2.7-2.9,3.6c-1.3,0.9-2.9,1.3-4.2,0.9
		c-2.3-0.6-3.4-2.1-3.6-3.6c-0.1-0.7,0-1.4,0.2-2.1c0.2-0.7,0.6-1.3,1.1-1.7c1.1-1,2.6-1.4,4.2-0.7c0.4,0.2,0.6,0.7,0.4,1.1
		s-0.7,0.6-1.1,0.4c-0.9-0.4-1.7-0.2-2.3,0.4c-0.3,0.3-0.6,0.7-0.7,1.1c-0.2,0.4-0.2,0.9-0.1,1.3c0.1,0.9,0.8,1.8,2.3,2.2
		c0.8,0.2,1.9-0.1,2.9-0.7c1-0.6,1.8-1.6,2.2-2.7c0.4-1.3,0.2-2.5-0.4-3.6c-0.4-0.8-1-1.4-1.8-1.8c-0.7-0.4-1.6-0.7-2.5-0.7
		c-1.3,0-2.7,0.6-4,1.9L62.9,64.6z"/>
	<path class="st1" d="M62.9,64.6c-0.3,0.3-0.9,0.3-1.2,0c-0.3-0.3-0.3-0.9,0-1.2l21.1-21c1.3-1.3,1.9-2.7,1.9-4
		c0-0.9-0.2-1.8-0.7-2.5c-0.4-0.7-1.1-1.3-1.8-1.8c-1.1-0.6-2.3-0.8-3.6-0.4c-1.1,0.3-2,1.2-2.7,2.2c-0.6,1-0.9,2-0.7,2.9
		c0.4,1.5,1.3,2.2,2.2,2.4c0.4,0.1,0.9,0,1.3-0.1c0.4-0.2,0.8-0.4,1.1-0.7c0.6-0.6,0.8-1.4,0.4-2.3c-0.2-0.4,0-0.9,0.4-1.1
		c0.4-0.2,0.9,0,1.1,0.4c0.8,1.6,0.3,3.1-0.7,4.2c-0.5,0.5-1.1,0.9-1.7,1.1c-0.7,0.2-1.4,0.3-2.1,0.2c-1.5-0.2-3-1.3-3.6-3.6
		c-0.4-1.3,0-2.9,0.9-4.2c0.8-1.3,2.1-2.4,3.6-2.9l0,0c1.7-0.5,3.5-0.3,4.9,0.5c1,0.6,1.9,1.4,2.5,2.4c0.6,1,1,2.2,0.9,3.4
		c0,1.7-0.7,3.5-2.4,5.2L62.9,64.6z"/>
	<path class="st1" d="M96.7,34.3c1.9-1.6,3.1-4.2,3.3-8c-3.4,0.2-6,1.2-7.7,3c-1.7,1.8-2.7,4.4-3,7.7C92.3,36.7,94.8,35.9,96.7,34.3
		 M101.7,25.5c-0.1,4.8-1.5,8.1-3.9,10.1c-2.4,2.1-5.6,2.9-9.3,3.2l-1,0.1l0.1-1c0.2-4.1,1.4-7.4,3.5-9.7c2.2-2.3,5.4-3.5,9.8-3.5
		l0.9,0L101.7,25.5z"/>
	<path class="st1" d="M62.3,64.8c-0.5,0-0.8-0.4-0.8-0.8c0-0.5,0.4-0.8,0.8-0.8l29.8,0v0c2.4,0,4.2,0.8,5.4,2
		c0.9,0.9,1.5,1.9,1.7,3.1c0.3,1.1,0.2,2.3-0.1,3.4c-0.5,1.6-1.5,3-3.1,3.8l0,0c-1.4,0.7-3.1,0.8-4.6,0.5c-1.6-0.3-2.9-1.2-3.6-2.4
		c-1.2-2.1-0.9-3.8,0-5.1c0.4-0.6,1-1,1.7-1.3c0.6-0.3,1.3-0.4,2-0.4c1.5,0,2.9,0.8,3.4,2.5c0.2,0.4-0.1,0.9-0.5,1.1
		c-0.4,0.2-0.9-0.1-1.1-0.5c-0.3-0.9-1.1-1.3-1.9-1.4c-0.4,0-0.9,0.1-1.3,0.3c-0.4,0.2-0.8,0.5-1,0.8c-0.5,0.7-0.7,1.8,0.1,3.2
		c0.4,0.8,1.4,1.3,2.5,1.5c1.2,0.2,2.4,0.2,3.4-0.3v0c1.2-0.6,1.9-1.6,2.2-2.8c0.2-0.8,0.3-1.7,0.1-2.6c-0.2-0.8-0.6-1.6-1.3-2.2
		c-0.9-0.9-2.3-1.5-4.2-1.5v0H62.3z"/>
	<path class="st1" d="M62.3,64.8c-0.5,0-0.8-0.4-0.8-0.8c0-0.5,0.4-0.8,0.8-0.8l29.8,0v0c1.9,0,3.3-0.6,4.2-1.5
		c0.7-0.6,1.1-1.4,1.3-2.2c0.2-0.8,0.2-1.7-0.1-2.6c-0.3-1.1-1.1-2.2-2.2-2.8l0,0c-1-0.5-2.3-0.6-3.4-0.3c-1.1,0.2-2.1,0.8-2.5,1.5
		v0c-0.8,1.4-0.7,2.5-0.1,3.2c0.3,0.3,0.6,0.6,1,0.8c0.4,0.2,0.8,0.3,1.3,0.3c0.8,0,1.6-0.4,1.9-1.4c0.2-0.4,0.6-0.7,1.1-0.5
		s0.7,0.6,0.5,1.1c-0.6,1.7-2,2.5-3.4,2.5c-0.7,0-1.4-0.1-2-0.4c-0.6-0.3-1.2-0.7-1.7-1.3c-0.9-1.2-1.2-3,0-5.1h0
		c0.7-1.2,2.1-2,3.6-2.4c1.5-0.3,3.2-0.2,4.6,0.5l0,0c1.6,0.8,2.6,2.3,3.1,3.8c0.3,1.1,0.4,2.3,0.1,3.4c-0.3,1.1-0.8,2.2-1.7,3.1
		c-1.2,1.2-3,2-5.4,2v0H62.3z"/>
	<path class="st1" d="M107.6,67.3c2.5,0.2,5.1-0.8,8-3.3c-2.5-2.3-5.1-3.4-7.5-3.3c-2.5,0.1-5,1.2-7.5,3.3
		C102.8,65.9,105.2,67.1,107.6,67.3 M117.4,64.6c-3.5,3.4-6.8,4.6-9.9,4.4c-3.1-0.2-6-1.9-8.8-4.4L97.9,64l0.7-0.6
		c3.1-2.7,6.2-4.3,9.4-4.4c3.2-0.1,6.3,1.3,9.4,4.4L118,64L117.4,64.6z"/>
	<path class="st1" d="M61.7,64.6c-0.3-0.3-0.3-0.9,0-1.2s0.9-0.3,1.2,0l21,21.1c1.7,1.7,2.4,3.5,2.4,5.2c0,1.2-0.3,2.4-0.9,3.4
		c-0.6,1-1.5,1.8-2.5,2.4c-1.4,0.8-3.2,1.1-4.9,0.5l0,0c-1.5-0.5-2.8-1.6-3.6-2.9c-0.9-1.3-1.3-2.9-0.9-4.2c0.6-2.3,2.1-3.4,3.6-3.6
		v0c0.7-0.1,1.4,0,2.1,0.2c0.7,0.2,1.3,0.6,1.7,1.1c1,1.1,1.4,2.6,0.7,4.2c-0.2,0.4-0.7,0.6-1.1,0.4c-0.4-0.2-0.6-0.7-0.4-1.1
		c0.4-0.9,0.2-1.7-0.4-2.3c-0.3-0.3-0.7-0.6-1.1-0.7c-0.4-0.2-0.9-0.2-1.3-0.2h0c-0.9,0.1-1.8,0.8-2.2,2.3c-0.2,0.8,0.1,1.9,0.7,2.9
		c0.6,1,1.6,1.8,2.7,2.2v0c1.3,0.4,2.5,0.2,3.6-0.4c0.8-0.4,1.4-1,1.8-1.8c0.4-0.7,0.7-1.6,0.7-2.5c0-1.3-0.6-2.7-1.9-4L61.7,64.6z"
		/>
	<path class="st1" d="M61.7,64.6c-0.3-0.3-0.3-0.9,0-1.2s0.9-0.3,1.2,0l21,21.1c1.3,1.3,2.7,1.9,4,1.9c0.9,0,1.8-0.2,2.5-0.7
		c0.7-0.4,1.3-1.1,1.8-1.8c0.6-1.1,0.8-2.3,0.4-3.6c-0.3-1.1-1.2-2-2.2-2.7c-1-0.6-2-0.9-2.9-0.7c-1.5,0.4-2.2,1.3-2.3,2.2
		c-0.1,0.4,0,0.9,0.1,1.3c0.2,0.4,0.4,0.8,0.7,1.1v0c0.6,0.6,1.4,0.8,2.3,0.4c0.4-0.2,0.9,0,1.1,0.4c0.2,0.4,0,0.9-0.4,1.1
		c-1.6,0.8-3.1,0.3-4.2-0.7l0,0c-0.5-0.5-0.9-1.1-1.1-1.7c-0.2-0.7-0.3-1.4-0.2-2.1c0.2-1.5,1.3-3,3.6-3.6c1.3-0.4,2.9,0,4.2,0.9
		c1.3,0.8,2.4,2.1,2.9,3.6l0,0c0.5,1.7,0.3,3.5-0.5,4.9c-0.6,1-1.4,1.9-2.4,2.5c-1,0.6-2.2,1-3.4,0.9c-1.7,0-3.5-0.7-5.2-2.4
		L61.7,64.6z"/>
	<path class="st1" d="M92,98.4c1.6,1.9,4.2,3.1,8,3.3c-0.2-3.4-1.2-5.9-3-7.7c-1.8-1.7-4.4-2.7-7.7-3C89.6,94,90.4,96.5,92,98.4
		 M100.8,103.4c-4.8-0.1-8.1-1.5-10.1-3.9c-2.1-2.4-2.9-5.6-3.2-9.3l-0.1-1l1,0.1c4.1,0.2,7.4,1.4,9.7,3.5c2.3,2.2,3.5,5.4,3.6,9.8
		l0,0.9L100.8,103.4z"/>
	<path class="st1" d="M61.4,64c0-0.5,0.4-0.8,0.8-0.8c0.5,0,0.8,0.4,0.8,0.8l0,29.8h0c0,2.4-0.8,4.2-2,5.4c-0.9,0.9-1.9,1.5-3.1,1.7
		c-1.1,0.3-2.3,0.2-3.4-0.1c-1.6-0.5-3-1.5-3.8-3.1l0,0c-0.7-1.4-0.8-3.1-0.5-4.6c0.3-1.6,1.2-2.9,2.4-3.6v0c2.1-1.2,3.8-0.9,5.1,0
		c0.6,0.4,1,1,1.3,1.7c0.3,0.6,0.4,1.3,0.4,2c0,1.5-0.8,2.9-2.5,3.4c-0.4,0.2-0.9-0.1-1.1-0.5c-0.2-0.4,0.1-0.9,0.5-1.1
		c0.9-0.3,1.3-1.1,1.4-1.9c0-0.4-0.1-0.9-0.3-1.3c-0.2-0.4-0.5-0.8-0.8-1c-0.7-0.5-1.8-0.7-3.2,0.1h0c-0.8,0.4-1.3,1.4-1.5,2.5
		c-0.3,1.2-0.2,2.4,0.3,3.4l0,0c0.6,1.2,1.6,1.9,2.8,2.3c0.8,0.2,1.7,0.3,2.6,0.1c0.8-0.2,1.6-0.6,2.2-1.3c0.9-0.9,1.5-2.3,1.5-4.2
		h0V64z"/>
	<path class="st1" d="M61.4,64c0-0.5,0.4-0.8,0.8-0.8c0.5,0,0.8,0.4,0.8,0.8l0,29.8h0c0,1.9,0.6,3.3,1.5,4.2
		c0.6,0.6,1.4,1.1,2.2,1.3c0.8,0.2,1.7,0.2,2.6-0.1c1.2-0.3,2.2-1.1,2.8-2.2h0c0.5-1,0.6-2.3,0.3-3.4c-0.2-1.1-0.8-2.1-1.5-2.5h0
		c-1.4-0.8-2.5-0.7-3.2-0.1c-0.3,0.3-0.6,0.6-0.8,1c-0.2,0.4-0.3,0.8-0.3,1.3c0,0.8,0.4,1.6,1.4,1.9c0.4,0.2,0.7,0.6,0.5,1.1
		c-0.2,0.4-0.6,0.7-1.1,0.5c-1.7-0.6-2.5-2-2.5-3.4c0-0.7,0.1-1.4,0.4-2c0.3-0.6,0.7-1.2,1.3-1.7c1.2-0.9,3-1.2,5.1,0v0
		c1.2,0.7,2,2.1,2.4,3.6c0.3,1.5,0.2,3.2-0.5,4.6l0,0c-0.8,1.6-2.3,2.6-3.8,3.1c-1.1,0.3-2.3,0.4-3.4,0.1c-1.1-0.3-2.2-0.8-3.1-1.7
		c-1.2-1.2-2-3-2-5.4h0V64z"/>
	<path class="st1" d="M59,109.3c-0.2,2.5,0.8,5.1,3.3,8c2.3-2.5,3.4-5.1,3.3-7.5c-0.1-2.5-1.2-5-3.3-7.5
		C60.4,104.5,59.1,106.9,59,109.3 M61.7,119.1c-3.4-3.5-4.6-6.8-4.4-9.9c0.2-3.1,1.9-6,4.4-8.8l0.6-0.7l0.6,0.7
		c2.7,3.1,4.3,6.2,4.4,9.4c0.1,3.2-1.3,6.3-4.4,9.4l-0.6,0.6L61.7,119.1z"/>
	<path class="st1" d="M61.7,63.4c0.3-0.3,0.9-0.3,1.2,0c0.3,0.3,0.3,0.9,0,1.2l-21.1,21c-1.7,1.7-3.5,2.4-5.2,2.4
		c-1.2,0-2.4-0.3-3.4-0.9c-1-0.6-1.8-1.5-2.4-2.5c-0.8-1.4-1-3.2-0.5-4.9l0,0c0.5-1.4,1.6-2.7,2.9-3.6c1.3-0.9,2.9-1.3,4.2-0.9
		c2.3,0.6,3.4,2.1,3.6,3.6c0.1,0.7,0,1.4-0.2,2.1c-0.2,0.7-0.6,1.3-1.1,1.7c-1.1,1-2.6,1.4-4.2,0.7c-0.4-0.2-0.6-0.7-0.4-1.1
		c0.2-0.4,0.7-0.6,1.1-0.4c0.9,0.4,1.7,0.2,2.3-0.4c0.3-0.3,0.6-0.7,0.7-1.1c0.2-0.4,0.2-0.9,0.2-1.3c-0.1-0.9-0.8-1.8-2.3-2.2
		c-0.8-0.2-1.9,0.1-2.9,0.7c-1,0.6-1.8,1.6-2.2,2.7c-0.4,1.3-0.2,2.5,0.4,3.6c0.4,0.8,1,1.4,1.8,1.9c0.7,0.4,1.6,0.7,2.5,0.7
		c1.3,0,2.7-0.6,4-1.9L61.7,63.4z"/>
	<path class="st1" d="M61.7,63.4c0.3-0.3,0.9-0.3,1.2,0c0.3,0.3,0.3,0.9,0,1.2l-21.1,21c-1.3,1.3-1.9,2.7-1.9,4
		c0,0.9,0.2,1.8,0.7,2.5c0.4,0.7,1.1,1.4,1.8,1.8c1,0.6,2.3,0.8,3.6,0.4l0,0c1.1-0.3,2-1.2,2.7-2.2c0.6-1,0.9-2,0.7-2.9
		c-0.4-1.5-1.3-2.2-2.2-2.4c-0.4-0.1-0.9,0-1.3,0.1c-0.4,0.2-0.8,0.4-1.1,0.7c-0.6,0.6-0.8,1.4-0.4,2.3c0.2,0.4,0,0.9-0.4,1.1
		c-0.4,0.2-0.9,0-1.1-0.4c-0.8-1.6-0.3-3.1,0.7-4.2c0.5-0.5,1.1-0.9,1.7-1.1c0.7-0.2,1.4-0.3,2.1-0.2c1.5,0.2,3,1.3,3.6,3.6
		c0.4,1.3,0,2.9-0.9,4.2c-0.8,1.3-2.1,2.4-3.6,2.9h0c-1.7,0.5-3.5,0.3-4.9-0.5c-1-0.6-1.9-1.4-2.5-2.4c-0.6-1-1-2.2-0.9-3.4
		c0-1.7,0.7-3.5,2.4-5.2L61.7,63.4z"/>
	<path class="st1" d="M27.8,93.6c-1.9,1.6-3.1,4.2-3.3,8c3.4-0.1,6-1.2,7.7-3c1.7-1.8,2.7-4.4,3-7.6C32.2,91.2,29.7,92,27.8,93.6
		 M22.8,102.4c0.1-4.8,1.6-8,3.9-10.1c2.4-2.1,5.6-2.9,9.3-3.1l1-0.1l-0.1,1c-0.3,4.1-1.4,7.4-3.6,9.7c-2.2,2.3-5.4,3.5-9.8,3.5
		l-0.9,0L22.8,102.4z"/>
	<path class="st1" d="M62.3,63.1c0.5,0,0.8,0.4,0.8,0.8c0,0.5-0.4,0.8-0.8,0.8l-29.8,0c-2.4,0-4.2-0.8-5.4-2
		c-0.9-0.9-1.5-1.9-1.7-3.1c-0.3-1.1-0.2-2.3,0.1-3.4c0.5-1.6,1.5-3,3.1-3.8l0,0c1.4-0.7,3.1-0.8,4.6-0.5c1.6,0.3,2.9,1.2,3.6,2.4
		c1.2,2.1,0.9,3.8,0,5.1c-0.4,0.6-1,1-1.7,1.3c-0.6,0.3-1.3,0.4-2,0.4c-1.5,0-2.9-0.8-3.4-2.5c-0.2-0.4,0.1-0.9,0.5-1.1
		c0.4-0.2,0.9,0.1,1.1,0.5c0.3,0.9,1.1,1.3,1.9,1.4c0.4,0,0.9-0.1,1.3-0.3c0.4-0.2,0.8-0.5,1-0.8c0.5-0.7,0.7-1.8-0.1-3.2
		c-0.4-0.8-1.4-1.3-2.5-1.5c-1.2-0.3-2.4-0.2-3.4,0.3l0,0c-1.2,0.6-1.9,1.6-2.3,2.8c-0.2,0.8-0.3,1.7-0.1,2.6
		c0.2,0.8,0.6,1.6,1.3,2.2c0.9,0.9,2.3,1.5,4.2,1.5L62.3,63.1z"/>
	<path class="st1" d="M62.3,63.1c0.5,0,0.8,0.4,0.8,0.8c0,0.5-0.4,0.8-0.8,0.8l-29.8,0c-1.9,0-3.3,0.6-4.2,1.5l0,0
		c-0.6,0.6-1.1,1.4-1.3,2.2c-0.2,0.8-0.2,1.7,0.1,2.6c0.3,1.2,1.1,2.2,2.2,2.8l0,0c1,0.5,2.3,0.6,3.4,0.3c1.1-0.2,2.1-0.8,2.5-1.5
		c0.8-1.4,0.7-2.5,0.1-3.2c-0.3-0.3-0.6-0.6-1-0.8c-0.4-0.2-0.8-0.3-1.3-0.3c-0.8,0-1.6,0.4-1.9,1.4c-0.2,0.4-0.6,0.7-1.1,0.5
		c-0.4-0.2-0.7-0.6-0.5-1.1c0.6-1.7,2-2.5,3.4-2.5c0.7,0,1.4,0.1,2,0.4c0.6,0.3,1.2,0.7,1.7,1.3c0.9,1.2,1.2,3,0,5.1
		c-0.7,1.2-2.1,2-3.6,2.4c-1.5,0.3-3.2,0.2-4.6-0.5l0,0c-1.6-0.8-2.6-2.3-3.1-3.8c-0.3-1.1-0.4-2.3-0.1-3.4c0.3-1.1,0.8-2.2,1.7-3.1
		h0c1.2-1.2,3-2,5.4-2L62.3,63.1z"/>
	<path class="st1" d="M17,60.7c-2.5-0.2-5.1,0.8-8,3.3c2.5,2.3,5.1,3.4,7.5,3.3c2.5-0.1,5-1.2,7.5-3.3C21.7,62.1,19.4,60.8,17,60.7
		 M7.1,63.4c3.5-3.4,6.8-4.6,9.9-4.4c3.1,0.2,6,1.9,8.8,4.4l0.7,0.6l-0.7,0.6c-3.1,2.7-6.2,4.3-9.4,4.4c-3.2,0.1-6.3-1.3-9.4-4.4
		L6.5,64L7.1,63.4z"/>
	<path class="st1" d="M62.9,63.4c0.3,0.3,0.3,0.9,0,1.2c-0.3,0.3-0.9,0.3-1.2,0l-21-21v0c-1.7-1.7-2.4-3.5-2.4-5.2
		c0-1.2,0.3-2.4,0.9-3.4c0.6-1,1.5-1.8,2.5-2.4c1.4-0.8,3.2-1.1,4.9-0.5l0,0c1.5,0.5,2.8,1.6,3.6,2.9c0.9,1.3,1.3,2.9,0.9,4.2
		c-0.6,2.3-2.1,3.4-3.6,3.6c-0.7,0.1-1.4,0-2.1-0.2c-0.7-0.2-1.3-0.6-1.7-1.1c-1-1.1-1.4-2.6-0.7-4.2c0.2-0.4,0.7-0.6,1.1-0.4
		c0.4,0.2,0.6,0.7,0.4,1.1c-0.4,0.9-0.2,1.7,0.4,2.3c0.3,0.3,0.7,0.6,1.1,0.7c0.4,0.2,0.9,0.2,1.3,0.1c0.9-0.1,1.8-0.8,2.2-2.3
		c0.2-0.8-0.1-1.9-0.7-2.9c-0.6-1-1.6-1.8-2.7-2.2v0c-1.3-0.4-2.5-0.2-3.6,0.4c-0.8,0.4-1.4,1-1.8,1.8c-0.4,0.7-0.7,1.6-0.7,2.5
		c0,1.3,0.6,2.7,1.9,4l0,0L62.9,63.4z"/>
	<path class="st1" d="M62.9,63.4c0.3,0.3,0.3,0.9,0,1.2c-0.3,0.3-0.9,0.3-1.2,0l-21-21v0c-1.3-1.3-2.7-1.9-4-1.9
		c-0.9,0-1.8,0.2-2.5,0.7c-0.7,0.4-1.3,1.1-1.8,1.8c-0.6,1.1-0.8,2.3-0.4,3.6c0.3,1.1,1.2,2,2.2,2.7c1,0.6,2,0.9,2.9,0.7
		c1.5-0.4,2.2-1.3,2.3-2.2c0.1-0.4,0-0.9-0.1-1.3c-0.2-0.4-0.4-0.8-0.7-1.1c-0.6-0.6-1.4-0.8-2.3-0.4c-0.4,0.2-0.9,0-1.1-0.4
		c-0.2-0.4,0-0.9,0.4-1.1c1.6-0.8,3.1-0.3,4.2,0.7c0.5,0.5,0.9,1.1,1.1,1.7c0.2,0.7,0.3,1.4,0.2,2.1c-0.2,1.5-1.3,3-3.6,3.6
		c-1.3,0.4-2.9,0-4.2-0.9c-1.3-0.8-2.4-2.1-2.9-3.6l0,0c-0.5-1.7-0.3-3.5,0.5-4.9c0.6-1,1.4-1.9,2.4-2.5c1-0.6,2.2-1,3.4-0.9
		c1.7,0,3.5,0.7,5.2,2.4l0,0L62.9,63.4z"/>
	<path class="st1" d="M32.6,29.6c-1.6-1.9-4.2-3.1-8-3.3c0.2,3.4,1.2,5.9,3,7.7c1.8,1.7,4.4,2.7,7.7,3C35,34,34.2,31.4,32.6,29.6
		 M23.7,24.6c4.8,0.1,8.1,1.5,10.1,3.9c2.1,2.4,2.9,5.6,3.2,9.3l0.1,1l-1-0.1c-4.1-0.2-7.4-1.4-9.7-3.5c-2.3-2.2-3.5-5.4-3.6-9.8
		l0-0.9L23.7,24.6z"/>
	<path class="st1" d="M46.6,19.9c-0.5-0.5-1.3-0.9-2.1-0.9c-0.8,0-1.6,0.3-2.1,0.9c-0.5,0.5-0.9,1.3-0.9,2.1c0,0.8,0.3,1.6,0.9,2.1
		c0.5,0.5,1.3,0.9,2.1,0.9c0.8,0,1.6-0.3,2.1-0.9v0c0.5-0.5,0.9-1.3,0.9-2.1S47.2,20.4,46.6,19.9 M44.5,17.3c1.3,0,2.5,0.5,3.3,1.4
		c0.8,0.8,1.4,2,1.4,3.3s-0.5,2.5-1.4,3.3l0,0c-0.8,0.8-2,1.4-3.3,1.4c-1.3,0-2.5-0.5-3.3-1.4c-0.8-0.8-1.4-2-1.4-3.3
		c0-1.3,0.5-2.5,1.4-3.3C42.1,17.8,43.2,17.3,44.5,17.3"/>
	<path class="st1" d="M81.6,19.7L81.6,19.7L81.6,19.7L81.6,19.7c-0.6-0.6-1.3-0.9-2.1-0.9c-0.8,0-1.5,0.3-2.1,0.9s-0.9,1.3-0.9,2.1
		c0,0.8,0.3,1.5,0.9,2.1l0,0h0v0c0.6,0.6,1.3,0.9,2.1,0.9c0.8,0,1.5-0.3,2.1-0.9l0,0l0,0h0c0.6-0.6,0.9-1.3,0.9-2.1
		C82.5,21,82.2,20.2,81.6,19.7 M82.8,18.5L82.8,18.5L82.8,18.5c0.9,0.9,1.4,2.1,1.4,3.3c0,1.2-0.5,2.4-1.4,3.3l0,0l0,0h0
		c-0.9,0.9-2.1,1.4-3.3,1.4c-1.2,0-2.4-0.5-3.3-1.4l0,0l0,0v0c-0.9-0.9-1.4-2.1-1.4-3.3c0-1.2,0.5-2.4,1.4-3.3
		c0.9-0.9,2.1-1.4,3.3-1.4C80.7,17.1,81.9,17.6,82.8,18.5L82.8,18.5z"/>
	<path class="st1" d="M107.3,46.2L107.3,46.2c0-0.8-0.3-1.6-0.9-2.1c-0.5-0.5-1.3-0.9-2.1-0.9v0c-0.8,0-1.6,0.3-2.1,0.9
		c-0.5,0.5-0.9,1.3-0.9,2.1h0v0h0c0,0.8,0.3,1.6,0.9,2.1l0,0c0.5,0.5,1.3,0.9,2.1,0.9h0h0v0c0.8,0,1.6-0.3,2.1-0.9v0
		C106.9,47.8,107.3,47,107.3,46.2 M109,46.2L109,46.2c0,1.3-0.5,2.5-1.4,3.3l0,0c-0.8,0.8-2,1.4-3.3,1.4v0h0h0
		c-1.3,0-2.5-0.5-3.3-1.4h0c-0.8-0.8-1.4-2-1.4-3.3h0v0h0c0-1.3,0.5-2.5,1.4-3.3c0.8-0.8,2-1.4,3.3-1.4v0c1.3,0,2.5,0.5,3.3,1.4
		C108.4,43.8,109,44.9,109,46.2"/>
	<path class="st1" d="M104.6,84c0.8,0,1.5-0.3,2.1-0.9c0.6-0.6,0.9-1.3,0.9-2.1c0-0.8-0.3-1.5-0.9-2.1h0l0,0l0,0
		c-0.6-0.6-1.3-0.9-2.1-0.9c-0.8,0-1.5,0.3-2.1,0.9v0l0,0l0,0c-0.6,0.6-0.9,1.3-0.9,2.1c0,0.8,0.3,1.5,0.9,2.1h0l0,0
		C103.1,83.7,103.8,84,104.6,84 M107.9,84.3c-0.9,0.9-2.1,1.4-3.3,1.4c-1.2,0-2.4-0.4-3.3-1.4h0h0l0,0c-0.9-0.9-1.4-2.1-1.4-3.3
		c0-1.2,0.4-2.4,1.4-3.3v0l0,0h0l0,0c0.9-0.9,2.1-1.4,3.3-1.4c1.2,0,2.4,0.5,3.3,1.4h0l0,0l0,0c0.9,0.9,1.4,2.1,1.4,3.3
		C109.3,82.2,108.8,83.4,107.9,84.3"/>
	<path class="st1" d="M78.2,108c0.5,0.5,1.3,0.9,2.1,0.9c0.8,0,1.6-0.3,2.1-0.9c0.5-0.5,0.9-1.3,0.9-2.1c0-0.8-0.3-1.6-0.9-2.1
		c-0.5-0.5-1.3-0.9-2.1-0.9l0,0h0v0c-0.8,0-1.6,0.3-2.1,0.9c-0.5,0.5-0.9,1.3-0.9,2.1l0,0v0h0C77.3,106.7,77.6,107.5,78.2,108
		 M80.3,110.6c-1.3,0-2.5-0.5-3.3-1.4c-0.8-0.8-1.4-2-1.4-3.3l0,0v0h0c0-1.3,0.5-2.5,1.4-3.3c0.8-0.8,2-1.4,3.3-1.4l0,0h0v0
		c1.3,0,2.5,0.5,3.3,1.4c0.8,0.8,1.4,2,1.4,3.3c0,1.3-0.5,2.5-1.4,3.3C82.7,110,81.6,110.6,80.3,110.6"/>
	<path class="st1" d="M42.8,108.2L42.8,108.2L42.8,108.2L42.8,108.2L42.8,108.2c0.6,0.6,1.3,0.9,2.1,0.9s1.5-0.3,2.1-0.9l0,0l0,0
		l0,0c0.6-0.6,0.9-1.3,0.9-2.1c0-0.8-0.3-1.5-0.9-2.1l0,0l0,0c-0.6-0.6-1.3-0.9-2.1-0.9c-0.8,0-1.5,0.3-2.1,0.9l0,0v0h0l0,0
		c-0.6,0.6-0.9,1.3-0.9,2.1C41.9,106.9,42.2,107.6,42.8,108.2 M41.6,109.4L41.6,109.4L41.6,109.4c-0.9-0.9-1.4-2.1-1.4-3.3
		c0-1.2,0.5-2.4,1.4-3.3l0,0l0,0l0,0c0.9-0.9,2.1-1.4,3.3-1.3c1.2,0,2.4,0.5,3.3,1.4v0l0,0c0.9,0.9,1.4,2.1,1.3,3.3
		c0,1.2-0.5,2.4-1.4,3.3l0,0l0,0l0,0c-0.9,0.9-2.1,1.4-3.3,1.3C43.7,110.8,42.5,110.4,41.6,109.4L41.6,109.4L41.6,109.4z"/>
	<path class="st1" d="M18,79.3c-0.5,0.5-0.9,1.3-0.9,2.1c0,0.8,0.3,1.6,0.9,2.1c0.5,0.5,1.3,0.9,2.1,0.9c0.8,0,1.6-0.3,2.1-0.9
		c0.5-0.5,0.9-1.3,0.9-2.1c0-0.8-0.3-1.6-0.9-2.1c-0.5-0.5-1.3-0.9-2.1-0.9C19.3,78.4,18.6,78.7,18,79.3 M15.5,81.4
		c0-1.3,0.5-2.5,1.4-3.3c0.9-0.8,2-1.4,3.3-1.3c1.3,0,2.5,0.5,3.3,1.4c0.8,0.9,1.4,2,1.3,3.3c0,1.3-0.5,2.5-1.4,3.3
		c-0.9,0.8-2,1.4-3.3,1.3c-1.3,0-2.5-0.5-3.3-1.4C16,83.8,15.4,82.6,15.5,81.4"/>
	<path class="st1" d="M20.2,43.5c-0.8,0-1.5,0.3-2.1,0.9c-0.6,0.6-0.9,1.3-0.9,2.1c0,0.8,0.3,1.5,0.9,2.1l0,0l0,0l0,0
		c0.6,0.6,1.3,0.9,2.1,0.9c0.8,0,1.5-0.3,2.1-0.9l0,0l0,0l0,0c0.6-0.6,0.9-1.3,0.9-2.1c0-0.8-0.3-1.5-0.9-2.1
		C21.7,43.8,20.9,43.5,20.2,43.5 M16.9,43.2c0.9-0.9,2.1-1.4,3.3-1.3c1.2,0,2.4,0.5,3.3,1.4c0.9,0.9,1.4,2.1,1.3,3.3v0
		c0,1.2-0.5,2.4-1.4,3.3h0v0l0,0c-0.9,0.9-2.1,1.3-3.3,1.3h0c-1.2,0-2.4-0.5-3.3-1.4l0,0l0,0l0,0c-0.9-0.9-1.4-2.1-1.3-3.3
		C15.5,45.3,16,44.1,16.9,43.2"/>
	<path class="st1" d="M73.1,53.2c-2.8-2.8-6.6-4.5-10.8-4.5c-4.2,0-8.1,1.7-10.8,4.5C48.7,55.9,47,59.8,47,64
		c0,4.2,1.7,8.1,4.5,10.8c2.8,2.8,6.6,4.5,10.8,4.5c4.2,0,8.1-1.7,10.8-4.5c2.8-2.8,4.5-6.6,4.5-10.8C77.6,59.8,75.9,55.9,73.1,53.2
		 M62.3,47c4.7,0,8.9,1.9,12,5c3.1,3.1,5,7.3,5,12c0,4.7-1.9,8.9-5,12c-3.1,3.1-7.3,5-12,5c-4.7,0-9-1.9-12-5c-3.1-3.1-5-7.3-5-12
		s1.9-8.9,5-12C53.3,48.9,57.6,47,62.3,47"/>
	<path class="st1" d="M75.9,50.4c-3.5-3.5-8.3-5.6-13.6-5.6c-5.3,0-10.1,2.2-13.6,5.6C45.2,53.8,43,58.7,43,64
		c0,5.3,2.2,10.1,5.6,13.6c3.5,3.5,8.3,5.6,13.6,5.6c5.3,0,10.1-2.2,13.6-5.6c3.5-3.5,5.6-8.3,5.6-13.6
		C81.5,58.7,79.4,53.8,75.9,50.4 M62.3,43c5.8,0,11,2.3,14.8,6.1c3.8,3.8,6.1,9,6.1,14.8c0,5.8-2.3,11-6.1,14.8
		c-3.8,3.8-9,6.1-14.8,6.1s-11-2.3-14.8-6.1c-3.8-3.8-6.1-9-6.1-14.8c0-5.8,2.3-11,6.1-14.8C51.3,45.4,56.5,43,62.3,43"/>
</g>
</svg>
