<svg xmlns="http://www.w3.org/2000/svg" width="22" height="22" viewBox="0 0 22 22">
    <g fill="#FFF">
        <path d="M11 4.697c2.2 0 4.043 1.784 4.043 4.044 0 2.2-1.843 3.983-4.043 3.983-2.26 0-4.043-1.783-4.043-3.983 0-2.26 1.784-4.044 4.043-4.044zm0 1.07c-1.605 0-2.914 1.309-2.914 2.974 0 1.605 1.309 2.913 2.914 2.913 1.605 0 2.914-1.308 2.914-2.913 0-1.665-1.309-2.973-2.914-2.973z"/>
        <path d="M11 0c6.065 0 11 4.935 11 11s-4.935 11-11 11S0 17.065 0 11 4.935 0 11 0zM3.508 17.481c.297-1.962 1.962-3.449 3.984-3.449h6.957c2.08 0 3.746 1.487 4.043 3.45 1.486-1.725 2.378-3.985 2.378-6.482 0-5.47-4.4-9.93-9.87-9.93-5.47 0-9.93 4.46-9.93 9.93 0 2.497.952 4.757 2.438 6.481zm13.914 1.07v-.535c0-1.605-1.308-2.913-2.973-2.913H7.492c-1.606 0-2.914 1.308-2.914 2.913v.535c1.725 1.427 3.984 2.32 6.422 2.32 2.438 0 4.697-.893 6.422-2.32z"/>
    </g>
</svg>
