<svg xmlns="http://www.w3.org/2000/svg" width="103" height="26" viewBox="0 0 103 26">
    <g fill="none" fill-rule="evenodd">
        <g transform="translate(76.679)">
            <ellipse cx="12.936" cy="13" fill="#FFF" rx="12.936" ry="13"/>
            <ellipse cx="12.912" cy="12.975" stroke="#264585" stroke-width="1.472" rx="10.719" ry="10.768"/>
        </g>
        <path fill="#FFF" fill-rule="nonzero" d="M61.273 24.646c2.786 0 4.907-.896 6.365-2.688 1.458-1.792 2.187-4.245 2.187-7.359v-2.315c0-3.114-.729-5.567-2.187-7.359-1.458-1.792-3.58-2.688-6.365-2.688H53.5v4.238h6.249c1.51 0 2.623.498 3.339 1.492.716.994 1.074 2.328 1.074 4.003v2.943c0 1.675-.358 3.009-1.074 4.003-.716.994-1.83 1.492-3.34 1.492h-6.248v4.238h7.772zm-16.636-8.241l5.584-.982.04-2.472V6.829l-.47-4.592h-5.623l.469 4.592v9.576zm-12.849 8.241c2.786 0 5-.89 6.64-2.669 1.64-1.779 2.46-4.238 2.46-7.378v-2.354c0-3.062-.768-5.495-2.304-7.3-1.537-1.805-3.658-2.708-6.366-2.708h-8.24l-1.562 7.064c-.104.523-.156 1.099-.156 1.727 0 1.7.52 3.048 1.562 4.042 1.041.994 2.72 1.518 5.038 1.57l.898-3.532c-.885-.183-1.523-.451-1.914-.805-.39-.353-.586-.856-.586-1.51 0-.315.04-.642.118-.982l.702-3.336h2.812c1.432 0 2.52.504 3.261 1.511.742 1.008 1.113 2.336 1.113 3.984v2.904c0 1.727-.423 3.08-1.27 4.062-.845.981-2.023 1.472-3.533 1.472h-7.889v4.238h9.216zm-13.082 0V9.616c0-2.539-.605-4.403-1.816-5.593-1.21-1.19-2.857-1.786-4.94-1.786H.234v4.238h10.193c1.744 0 2.616.955 2.616 2.865v15.306h5.663zm-13.043 0V11.303H.78L0 13.933v10.713h5.663z"/>
    </g>
</svg>
